<svg width="45" height="45" viewBox="0 0 45 45" fill="none" xmlns="http://www.w3.org/2000/svg">
<path d="M43.9997 22.1061C44.2797 33.9861 33.8997 44.6961 20.7797 43.9661C16.4826 43.7274 12.3499 42.2336 8.89332 39.6696C5.43672 37.1056 2.80806 33.5841 1.33284 29.5411C-0.142383 25.4981 -0.399374 21.1112 0.593688 16.9236C1.58675 12.736 3.78625 8.93168 6.91983 5.98164C10.0534 3.03159 13.9834 1.06543 18.2233 0.326611C22.4631 -0.412208 26.8265 0.108767 30.7733 1.82503C34.72 3.54129 38.0766 6.37745 40.4276 9.98233C42.7785 13.5872 44.0205 17.8025 43.9997 22.1061ZM30.3997 21.8761C28.7997 21.8761 27.1998 21.8761 25.5898 21.8761C24.9498 21.8761 24.8597 21.7561 25.0997 21.1361C27.1664 15.8028 29.2064 10.4895 31.2197 5.19614C31.4197 4.65614 32.0198 3.87614 31.6298 3.58614C31.2398 3.29614 30.7297 4.14614 30.2297 4.40614C30.1807 4.44321 30.1339 4.48329 30.0898 4.52614L19.3098 13.1961C15.9298 15.9161 12.5598 18.6428 9.19975 21.3761C9.02975 21.5061 8.74975 21.5961 8.86975 21.8661C8.98975 22.1361 9.30975 22.0561 9.53975 22.0561C12.5397 22.0561 15.5397 22.0561 18.5397 22.0561C19.2497 22.0561 19.4098 22.2361 19.1298 22.9361C16.9764 28.3895 14.8597 33.8561 12.7797 39.3361C12.6497 39.6861 12.1897 40.1761 12.5297 40.4261C12.8697 40.6761 13.2797 40.1361 13.5997 39.8961L35.4897 22.6561C35.6697 22.5061 36.0297 22.4161 35.8897 22.1061C35.7497 21.7961 35.4697 21.8761 35.2197 21.8761H30.3997Z" fill="#8CC63F"/>
</svg>
