<svg width="45" height="46" viewBox="0 0 45 46" fill="none" xmlns="http://www.w3.org/2000/svg">
<path d="M44.9943 22.6086C45.2807 34.7586 34.666 45.712 21.2495 44.9654C16.8552 44.7212 12.6291 43.1935 9.09435 40.5712C5.55962 37.9489 2.87154 34.3474 1.36297 30.2125C-0.145602 26.0776 -0.408402 21.591 0.607108 17.3083C1.62262 13.0255 3.87184 9.13467 7.07625 6.11758C10.2807 3.10049 14.2995 1.08964 18.6352 0.334034C22.9709 -0.421576 27.433 0.111239 31.4689 1.86651C35.5048 3.62177 38.9373 6.5224 41.3414 10.2092C43.7455 13.896 45.0156 18.2071 44.9943 22.6086ZM31.0869 22.3733C29.4508 22.3733 27.8146 22.3733 26.1682 22.3733C25.5137 22.3733 25.4217 22.2506 25.6671 21.6165C27.7805 16.162 29.8666 10.7279 31.9255 5.31424C32.13 4.76197 32.7435 3.96424 32.3447 3.66765C31.9459 3.37106 31.4244 4.24037 30.9131 4.50628C30.8629 4.5442 30.8151 4.58518 30.7699 4.62901L19.7462 13.4961C16.2898 16.2779 12.8437 19.0665 9.40771 21.862C9.23387 21.9949 8.94753 22.087 9.07025 22.3631C9.19296 22.6392 9.52019 22.5574 9.75539 22.5574C12.8232 22.5574 15.891 22.5574 18.9588 22.5574C19.6849 22.5574 19.8485 22.7415 19.5622 23.4574C17.3602 29.0347 15.1956 34.6256 13.0686 40.2301C12.9357 40.5881 12.4653 41.0892 12.813 41.3449C13.1607 41.6006 13.5799 41.0483 13.9072 40.8029L36.292 23.1711C36.476 23.0176 36.8442 22.9256 36.701 22.6086C36.5579 22.2915 36.2715 22.3733 36.0159 22.3733H31.0869Z" fill="#8CC63F"/>
</svg>
