<svg width="323" height="100" viewBox="0 0 323 100" fill="none" xmlns="http://www.w3.org/2000/svg">
<g clip-path="url(#clip0_1_46)">
<path d="M216.88 23.84C218.213 23.84 219.36 24.2933 220.32 25.2C221.333 26.0533 221.84 27.1467 221.84 28.48C221.84 29.1733 221.68 29.8933 221.36 30.64L201.6 76.88C201.12 77.9467 200.427 78.7467 199.52 79.28C198.667 79.76 197.787 80 196.88 80C196.027 79.9467 195.2 79.68 194.4 79.2C193.6 78.6667 192.987 77.92 192.56 76.96L172.8 30.56C172.64 30.24 172.533 29.92 172.48 29.6C172.427 29.2267 172.4 28.88 172.4 28.56C172.4 27.0133 172.96 25.84 174.08 25.04C175.2 24.1867 176.267 23.76 177.28 23.76C179.307 23.76 180.773 24.8 181.68 26.88L199.2 68.08L196.4 68.16L212.48 26.88C213.387 24.8533 214.853 23.84 216.88 23.84ZM263.464 58.64C263.464 63.0133 262.477 66.88 260.504 70.24C258.584 73.5467 255.97 76.1333 252.664 78C249.41 79.8667 245.757 80.8 241.704 80.8C237.65 80.8 233.97 79.8667 230.664 78C227.41 76.1333 224.797 73.5467 222.824 70.24C220.904 66.88 219.944 63.0133 219.944 58.64C219.944 54.2667 220.904 50.4267 222.824 47.12C224.797 43.76 227.41 41.1467 230.664 39.28C233.97 37.36 237.65 36.4 241.704 36.4C245.757 36.4 249.41 37.36 252.664 39.28C255.97 41.1467 258.584 43.76 260.504 47.12C262.477 50.4267 263.464 54.2667 263.464 58.64ZM253.864 58.64C253.864 55.92 253.304 53.5733 252.184 51.6C251.117 49.5733 249.65 48 247.784 46.88C245.97 45.76 243.944 45.2 241.704 45.2C239.464 45.2 237.41 45.76 235.544 46.88C233.73 48 232.264 49.5733 231.144 51.6C230.077 53.5733 229.544 55.92 229.544 58.64C229.544 61.3067 230.077 63.6533 231.144 65.68C232.264 67.6533 233.73 69.2 235.544 70.32C237.41 71.44 239.464 72 241.704 72C243.944 72 245.97 71.44 247.784 70.32C249.65 69.2 251.117 67.6533 252.184 65.68C253.304 63.6533 253.864 61.3067 253.864 58.64ZM276.666 75.12C276.666 76.5067 276.186 77.68 275.226 78.64C274.319 79.5467 273.172 80 271.786 80C270.452 80 269.332 79.5467 268.426 78.64C267.519 77.68 267.066 76.5067 267.066 75.12V25.68C267.066 24.2933 267.519 23.1467 268.426 22.24C269.386 21.28 270.559 20.8 271.946 20.8C273.332 20.8 274.452 21.28 275.306 22.24C276.212 23.1467 276.666 24.2933 276.666 25.68V75.12ZM282.474 38H301.434C302.714 38 303.78 38.4267 304.634 39.28C305.487 40.1333 305.914 41.2 305.914 42.48C305.914 43.7067 305.487 44.7467 304.634 45.6C303.78 46.4 302.714 46.8 301.434 46.8H282.474C281.194 46.8 280.127 46.3733 279.274 45.52C278.42 44.6667 277.994 43.6 277.994 42.32C277.994 41.0933 278.42 40.08 279.274 39.28C280.127 38.4267 281.194 38 282.474 38ZM291.034 28C292.42 28 293.54 28.48 294.394 29.44C295.3 30.3467 295.754 31.4933 295.754 32.88V68.48C295.754 69.2267 295.887 69.84 296.154 70.32C296.474 70.8 296.874 71.1467 297.354 71.36C297.887 71.5733 298.447 71.68 299.034 71.68C299.674 71.68 300.26 71.5733 300.794 71.36C301.327 71.0933 301.94 70.96 302.634 70.96C303.38 70.96 304.047 71.3067 304.634 72C305.274 72.6933 305.594 73.6533 305.594 74.88C305.594 76.3733 304.767 77.6 303.114 78.56C301.514 79.52 299.78 80 297.914 80C296.794 80 295.54 79.92 294.154 79.76C292.82 79.5467 291.54 79.0933 290.314 78.4C289.14 77.6533 288.154 76.5333 287.354 75.04C286.554 73.5467 286.154 71.4933 286.154 68.88V32.88C286.154 31.4933 286.607 30.3467 287.514 29.44C288.474 28.48 289.647 28 291.034 28ZM318.168 75.12C318.168 76.5067 317.715 77.68 316.808 78.64C315.901 79.5467 314.755 80 313.368 80C311.981 80 310.835 79.5467 309.928 78.64C309.021 77.68 308.568 76.5067 308.568 75.12V42.08C308.568 40.6933 309.021 39.5467 309.928 38.64C310.835 37.68 311.981 37.2 313.368 37.2C314.755 37.2 315.901 37.68 316.808 38.64C317.715 39.5467 318.168 40.6933 318.168 42.08V75.12ZM313.288 32C311.475 32 310.195 31.7067 309.448 31.12C308.701 30.5333 308.328 29.4933 308.328 28V26.48C308.328 24.9333 308.728 23.8933 309.528 23.36C310.381 22.7733 311.661 22.48 313.368 22.48C315.235 22.48 316.541 22.7733 317.288 23.36C318.035 23.9467 318.408 24.9867 318.408 26.48V28C318.408 29.5467 318.008 30.6133 317.208 31.2C316.408 31.7333 315.101 32 313.288 32Z" fill="#131419"/>
<path d="M0.03 81.38C0.22 80.1 0.42 78.82 0.6 77.54C1.6 70.26 4.13 63.71 9.95 58.84C12.5609 56.8275 15.478 55.2474 18.59 54.16C21.4506 53.0479 24.3884 52.1455 27.38 51.46C29.51 50.96 31.69 50.64 33.84 50.23C37.7013 49.4851 41.4494 48.2413 44.99 46.53C47.9686 44.9472 50.7623 43.0389 53.32 40.84C57.7145 37.3852 62.4887 34.4429 67.55 32.07C71.0369 30.398 74.6643 29.036 78.39 28C81.7663 27.0643 85.2262 26.4614 88.72 26.2C91.3784 25.9418 94.0496 25.8383 96.72 25.89C101.612 26.0422 106.489 26.5098 111.32 27.29C120.874 29.0737 129.652 33.7435 136.47 40.67C138.22 42.38 140.03 44.04 141.8 45.73C142.313 46.2911 142.864 46.8157 143.45 47.3C143.82 47.57 143.81 47.88 143.45 48.23C142.71 48.95 141.98 49.7 141.3 50.47C140.89 50.93 140.63 50.83 140.24 50.47C138.01 48.31 135.74 46.19 133.51 44.03C128.7 39.38 123.36 35.57 116.93 33.43C113.516 32.2965 109.994 31.5191 106.42 31.11C101.836 30.5421 97.2175 30.3081 92.6 30.41C89.4647 30.4888 86.341 30.8232 83.26 31.41C76.8211 32.6792 70.6372 35.0075 64.96 38.3C60.768 40.7566 56.7936 43.5668 53.08 46.7C50.0175 49.0726 46.6029 50.9519 42.96 52.27C38.13 54.18 32.96 54.79 27.96 55.93C22.58 57.16 17.28 58.78 12.83 62.27C9.9093 64.6796 7.74034 67.8758 6.58 71.48C5.44798 74.8408 4.77523 78.3391 4.58 81.88C4.51005 82.6374 4.60209 83.4009 4.85 84.12C4.93385 84.4752 5.13587 84.7913 5.42294 85.0166C5.71 85.2419 6.06509 85.363 6.43 85.36H6.71C7.32 85.36 8.03 85.93 8.5 85.55C8.97 85.17 8.75 84.37 8.82 83.75C9.11732 80.3328 10.2543 77.0419 12.13 74.17C13.4835 72.1351 15.2362 70.3963 17.2817 69.059C19.3273 67.7217 21.6231 66.8136 24.03 66.39C27.8839 65.5459 31.8989 65.8236 35.6 67.19C37.8751 68.0186 39.9627 69.2914 41.7412 70.9344C43.5198 72.5774 44.9539 74.5576 45.96 76.76C47.2094 79.4415 47.8903 82.3525 47.96 85.31C47.96 86.03 48.34 86.12 48.96 86.12C56.96 86.12 64.96 86.12 72.96 86.12C85.1133 86.12 97.2633 86.12 109.41 86.12C110.15 86.12 110.41 85.99 110.48 85.12C110.614 81.3818 111.75 77.7483 113.77 74.6C116.037 71.1533 119.365 68.5382 123.25 67.15C126.585 65.9025 130.189 65.5575 133.7 66.15C136.779 66.5628 139.703 67.7512 142.198 69.6035C144.692 71.4558 146.675 73.9115 147.96 76.74C149.032 78.9314 149.677 81.3071 149.86 83.74C149.866 83.8962 149.893 84.0509 149.94 84.2C150.03 84.41 149.89 84.75 150.28 84.78C150.67 84.81 150.74 84.57 150.86 84.36C151.454 83.3759 151.852 82.2857 152.03 81.15C152.317 78.6239 152.444 76.0821 152.41 73.54C152.41 67.34 152.48 61.14 152.41 54.94C152.283 44.0533 152.097 33.1667 151.85 22.28C151.884 21.0061 151.65 19.7393 151.165 18.5612C150.679 17.3831 149.952 16.3198 149.03 15.44C147.642 14.2426 145.863 13.5952 144.03 13.62C142.36 13.62 140.69 13.62 139.03 13.62C138.32 13.62 138.09 13.41 138.13 12.71C138.18 11.77 138.13 10.82 138.13 9.87C138.13 9.46 138.2 9.21 138.68 9.23C141.59 9.38 144.52 8.9 147.41 9.64C149.073 10.052 150.618 10.8445 151.923 11.955C153.228 13.0656 154.257 14.464 154.93 16.04C155.977 18.3571 156.496 20.8778 156.45 23.42C156.45 36.51 157.05 49.6 156.84 62.69C156.846 62.8774 156.863 63.0644 156.89 63.25C156.89 67.3833 156.873 71.5067 156.84 75.62C156.917 78.1839 156.672 80.7473 156.11 83.25C155.689 85.2243 154.635 87.0076 153.11 88.33C152.549 88.8619 151.858 89.237 151.106 89.4177C150.355 89.5984 149.569 89.5784 148.827 89.3596C148.086 89.1408 147.415 88.731 146.882 88.1712C146.349 87.6114 145.972 86.9212 145.79 86.17C145.4 84.77 145.47 83.32 145.11 81.92C144.04 77.8 141.89 74.44 138.11 72.37C132.78 69.45 127.37 69.67 122.11 72.66C120.295 73.7175 118.735 75.1616 117.54 76.8899C116.346 78.6181 115.547 80.5881 115.2 82.66C114.711 84.9056 114.657 87.224 115.04 89.49C115.19 90.37 114.94 90.63 114.04 90.63C93.9933 90.63 73.94 90.63 53.88 90.63C50.76 90.63 47.64 90.63 44.53 90.63C43.91 90.63 43.71 90.49 43.76 89.84C43.887 87.3241 43.6819 84.8023 43.15 82.34C42.6161 79.2095 41.0575 76.3451 38.7189 74.1966C36.3804 72.0481 33.3944 70.7373 30.23 70.47C25.56 70.01 21.3 71.03 17.79 74.37C15.0096 77.1108 13.3788 80.8086 13.23 84.71C13.08 86.55 13.23 88.42 13.23 90.28C13.23 90.84 13.23 91.01 12.5 90.88C10.44 90.47 8.35 90.17 6.27 89.88C5.10314 89.806 3.97967 89.4098 3.02457 88.7354C2.06946 88.061 1.32016 87.1348 0.86 86.06C0.43 85.06 0.37 84.06 0 83.06L0.03 81.38Z" fill="#131419"/>
<path d="M27.96 100.08C27.28 99.63 26.47 99.83 25.74 99.74C24.1124 99.5073 22.5576 98.9128 21.19 98C18.6196 96.512 16.589 94.2452 15.3918 91.5272C14.1946 88.8092 13.8928 85.7808 14.53 82.88C14.9481 80.3622 16.0823 78.0181 17.7971 76.1277C19.5119 74.2373 21.7348 72.8807 24.2 72.22C27.489 71.1729 31.0496 71.385 34.191 72.8152C37.3323 74.2455 39.8303 76.7918 41.2 79.96C42.4528 82.8881 42.6995 86.149 41.9016 89.2322C41.1036 92.3155 39.306 95.0473 36.79 97C34.5517 98.7583 31.8143 99.7629 28.97 99.87C28.84 99.87 28.73 99.87 28.71 100.06L27.96 100.08ZM28.33 95.25C30.2477 95.242 32.1192 94.6604 33.7036 93.5801C35.2881 92.4998 36.5131 90.9701 37.2211 89.1879C37.9291 87.4056 38.0876 85.4523 37.6764 83.5792C37.2651 81.7061 36.3029 79.9989 34.9134 78.6772C33.5239 77.3554 31.7707 76.4796 29.8794 76.1624C27.9881 75.8453 26.0452 76.1012 24.3005 76.8973C22.5559 77.6934 21.0893 78.9933 20.0894 80.6297C19.0896 82.2661 18.6022 84.1643 18.69 86.08C18.7986 88.5586 19.8636 90.8987 21.6612 92.6086C23.4588 94.3186 25.8491 95.2653 28.33 95.25Z" fill="#131419"/>
<path d="M116.74 0C117.026 0.214864 117.25 0.502663 117.387 0.833355C117.524 1.16405 117.57 1.52551 117.52 1.88C117.52 8.42 117.52 14.96 117.52 21.5C117.52 22.63 117.09 23.21 116.25 23.19C115.41 23.17 114.9 22.65 114.9 21.53C114.9 14.93 114.9 8.32 114.9 1.72C114.914 1.08005 115.163 0.467619 115.6 0L116.74 0Z" fill="#131419"/>
<path d="M110.13 59.52C110.41 71.4 100.03 82.11 86.91 81.38C82.6129 81.1413 78.4802 79.6474 75.0236 77.0835C71.567 74.5195 68.9383 70.998 67.4631 66.955C65.9879 62.912 65.7309 58.5251 66.7239 54.3375C67.717 50.1499 69.9165 46.3455 73.0501 43.3955C76.1837 40.4454 80.1137 38.4793 84.3535 37.7405C88.5934 37.0016 92.9568 37.5226 96.9035 39.2389C100.85 40.9551 104.207 43.7913 106.558 47.3962C108.909 51.0011 110.151 55.2163 110.13 59.52ZM96.53 59.29C94.93 59.29 93.33 59.29 91.72 59.29C91.08 59.29 90.99 59.17 91.23 58.55C93.2967 53.2167 95.3367 47.9033 97.35 42.61C97.55 42.07 98.15 41.29 97.76 41C97.37 40.71 96.86 41.56 96.36 41.82C96.3109 41.8571 96.2641 41.8971 96.22 41.94L85.44 50.61C82.06 53.33 78.69 56.0567 75.33 58.79C75.16 58.92 74.88 59.01 75 59.28C75.12 59.55 75.44 59.47 75.67 59.47C78.67 59.47 81.67 59.47 84.67 59.47C85.38 59.47 85.54 59.65 85.26 60.35C83.1067 65.8033 80.99 71.27 78.91 76.75C78.78 77.1 78.32 77.59 78.66 77.84C79 78.09 79.41 77.55 79.73 77.31L101.62 60.07C101.8 59.92 102.16 59.83 102.02 59.52C101.88 59.21 101.6 59.29 101.35 59.29H96.53Z" fill="white"/>
<path d="M119.03 11.45C119.03 8.25001 119.03 5.05001 119.03 1.85001C119.03 1.37001 119.14 1.10001 119.63 1.13001C121.88 1.25001 124.15 0.950008 126.4 1.45001C127.94 1.72133 129.388 2.37418 130.61 3.34891C131.833 4.32365 132.792 5.58921 133.4 7.03001C133.62 7.55001 133.85 7.96001 134.48 8.03001C135.11 8.10001 135.29 8.50001 135.28 9.11001C135.28 10.77 135.28 12.44 135.28 14.11C135.28 14.76 135.01 15.23 134.28 15.22C133.74 15.22 133.59 15.57 133.43 15.94C131.94 19.59 129.08 21.33 125.31 21.88C124.249 21.9731 123.184 22.0065 122.12 21.98C121.89 21.98 121.52 22.15 121.45 21.69C121.45 21.5 121.3 21.51 121.27 21.69C121.2 22.15 120.85 21.99 120.61 22C118.95 22.07 118.97 22.06 118.99 20.38C118.99 17.38 118.99 14.38 118.99 11.43L119.03 11.45ZM122.9 11.81V6.16001C122.9 5.50001 122.9 4.84001 122.9 4.16001C122.909 4.07198 122.898 3.98313 122.87 3.89941C122.841 3.8157 122.795 3.73907 122.734 3.67466C122.674 3.61025 122.6 3.55956 122.518 3.52598C122.436 3.49241 122.348 3.47673 122.26 3.48001C122.086 3.47302 121.915 3.53029 121.781 3.64093C121.646 3.75157 121.557 3.90785 121.53 4.08001C121.467 4.32182 121.434 4.57024 121.43 4.82001C121.43 9.57001 121.43 14.31 121.43 19.05C121.43 19.65 121.64 20.05 122.26 20.05C122.88 20.05 122.96 19.58 122.95 19.05C122.84 16.65 122.85 14.23 122.85 11.81H122.9Z" fill="#131419"/>
<path d="M108.24 16.9C109.75 16.9 111.24 16.9 112.77 16.9C113.36 16.9 113.53 17.09 113.52 17.66C113.52 19.88 113.81 19.51 111.72 19.52C109.36 19.52 107 19.52 104.64 19.52C104.169 19.5522 103.696 19.5287 103.23 19.45C102.911 19.4122 102.618 19.253 102.414 19.0053C102.209 18.7577 102.107 18.4406 102.13 18.12C102.128 17.9529 102.161 17.7872 102.226 17.6333C102.291 17.4793 102.387 17.3404 102.508 17.225C102.629 17.1097 102.772 17.0205 102.929 16.9628C103.086 16.9052 103.253 16.8804 103.42 16.89C105.03 16.88 106.63 16.9 108.24 16.9Z" fill="#131419"/>
<path d="M108.17 6.65999C106.63 6.65999 105.09 6.65999 103.55 6.65999C103.377 6.674 103.204 6.65164 103.04 6.59436C102.876 6.53708 102.727 6.44614 102.6 6.32741C102.474 6.20869 102.374 6.06482 102.307 5.90507C102.24 5.74533 102.207 5.57327 102.21 5.39999C102.21 5.2343 102.246 5.07055 102.314 4.9194C102.381 4.76825 102.48 4.63309 102.604 4.52272C102.728 4.41235 102.873 4.32924 103.031 4.27881C103.189 4.22837 103.355 4.21174 103.52 4.22999H112.76C113.28 4.22999 113.61 4.37999 113.51 4.99999C113.475 5.2789 113.475 5.56108 113.51 5.83999C113.57 6.53999 113.35 6.75999 112.59 6.71999C111.12 6.62999 109.64 6.71999 108.16 6.71999L108.17 6.65999Z" fill="#131419"/>
<path d="M130.46 99.9C121.92 100.24 115.73 91.77 116.54 84.26C116.923 80.6172 118.71 77.2666 121.52 74.9175C124.331 72.5684 127.945 71.4053 131.598 71.6743C135.251 71.9433 138.656 73.6234 141.092 76.3588C143.528 79.0942 144.804 82.6703 144.65 86.33C144.27 94 137.91 100.29 130.46 99.9ZM130.64 76.07C129.385 76.0569 128.139 76.2911 126.974 76.7594C125.809 77.2277 124.748 77.9209 123.851 78.7993C122.954 79.6778 122.239 80.7243 121.746 81.8791C121.253 83.034 120.993 84.2745 120.98 85.53C120.967 86.7854 121.201 88.0312 121.669 89.1961C122.138 90.361 122.831 91.4222 123.709 92.3192C124.588 93.2162 125.634 93.9314 126.789 94.424C127.944 94.9166 129.185 95.1769 130.44 95.19C131.712 95.2276 132.979 95.0085 134.164 94.5457C135.35 94.0829 136.43 93.3859 137.34 92.4964C138.25 91.6069 138.971 90.543 139.461 89.3684C139.951 88.1938 140.199 86.9326 140.19 85.66C140.187 83.1243 139.182 80.6926 137.392 78.8958C135.603 77.0991 133.176 76.0832 130.64 76.07V76.07Z" fill="#131419"/>
</g>
<defs>
<clipPath id="clip0_1_46">
<rect width="323" height="100" fill="white"/>
</clipPath>
</defs>
</svg>
